<svg id="visual" viewBox="0 0 900 600" width="900" height="600" xmlns="http://www.w3.org/2000/svg" xmlns:xlink="http://www.w3.org/1999/xlink" version="1.1"><path d="M0 109L13.7 137C27.3 165 54.7 221 82 227C109.3 233 136.7 189 163.8 190C191 191 218 237 245.2 240C272.3 243 299.7 203 327 174C354.3 145 381.7 127 409 147C436.3 167 463.7 225 491 236C518.3 247 545.7 211 573 194C600.3 177 627.7 179 654.8 165C682 151 709 121 736.2 108C763.3 95 790.7 99 818 100C845.3 101 872.7 99 886.3 98L900 97L900 0L886.3 0C872.7 0 845.3 0 818 0C790.7 0 763.3 0 736.2 0C709 0 682 0 654.8 0C627.7 0 600.3 0 573 0C545.7 0 518.3 0 491 0C463.7 0 436.3 0 409 0C381.7 0 354.3 0 327 0C299.7 0 272.3 0 245.2 0C218 0 191 0 163.8 0C136.7 0 109.3 0 82 0C54.7 0 27.3 0 13.7 0L0 0Z" fill="#e66465"></path><path d="M0 253L13.7 275C27.3 297 54.7 341 82 342C109.3 343 136.7 301 163.8 295C191 289 218 319 245.2 318C272.3 317 299.7 285 327 254C354.3 223 381.7 193 409 208C436.3 223 463.7 283 491 299C518.3 315 545.7 287 573 274C600.3 261 627.7 263 654.8 243C682 223 709 181 736.2 165C763.3 149 790.7 159 818 165C845.3 171 872.7 173 886.3 174L900 175L900 95L886.3 96C872.7 97 845.3 99 818 98C790.7 97 763.3 93 736.2 106C709 119 682 149 654.8 163C627.7 177 600.3 175 573 192C545.7 209 518.3 245 491 234C463.7 223 436.3 165 409 145C381.7 125 354.3 143 327 172C299.7 201 272.3 241 245.2 238C218 235 191 189 163.8 188C136.7 187 109.3 231 82 225C54.7 219 27.3 163 13.7 135L0 107Z" fill="#e6688f"></path><path d="M0 337L13.7 351C27.3 365 54.7 393 82 393C109.3 393 136.7 365 163.8 360C191 355 218 373 245.2 373C272.3 373 299.7 355 327 326C354.3 297 381.7 257 409 269C436.3 281 463.7 345 491 358C518.3 371 545.7 333 573 326C600.3 319 627.7 343 654.8 326C682 309 709 251 736.2 224C763.3 197 790.7 201 818 206C845.3 211 872.7 217 886.3 220L900 223L900 173L886.3 172C872.7 171 845.3 169 818 163C790.7 157 763.3 147 736.2 163C709 179 682 221 654.8 241C627.7 261 600.3 259 573 272C545.7 285 518.3 313 491 297C463.7 281 436.3 221 409 206C381.7 191 354.3 221 327 252C299.7 283 272.3 315 245.2 316C218 317 191 287 163.8 293C136.7 299 109.3 341 82 340C54.7 339 27.3 295 13.7 273L0 251Z" fill="#d675b6"></path><path d="M0 409L13.7 424C27.3 439 54.7 469 82 472C109.3 475 136.7 451 163.8 451C191 451 218 475 245.2 469C272.3 463 299.7 427 327 392C354.3 357 381.7 323 409 334C436.3 345 463.7 401 491 418C518.3 435 545.7 413 573 413C600.3 413 627.7 435 654.8 423C682 411 709 365 736.2 338C763.3 311 790.7 303 818 308C845.3 313 872.7 331 886.3 340L900 349L900 221L886.3 218C872.7 215 845.3 209 818 204C790.7 199 763.3 195 736.2 222C709 249 682 307 654.8 324C627.7 341 600.3 317 573 324C545.7 331 518.3 369 491 356C463.7 343 436.3 279 409 267C381.7 255 354.3 295 327 324C299.7 353 272.3 371 245.2 371C218 371 191 353 163.8 358C136.7 363 109.3 391 82 391C54.7 391 27.3 363 13.7 349L0 335Z" fill="#b887d4"></path><path d="M0 601L13.7 601C27.3 601 54.7 601 82 601C109.3 601 136.7 601 163.8 601C191 601 218 601 245.2 601C272.3 601 299.7 601 327 601C354.3 601 381.7 601 409 601C436.3 601 463.7 601 491 601C518.3 601 545.7 601 573 601C600.3 601 627.7 601 654.8 601C682 601 709 601 736.2 601C763.3 601 790.7 601 818 601C845.3 601 872.7 601 886.3 601L900 601L900 347L886.3 338C872.7 329 845.3 311 818 306C790.7 301 763.3 309 736.2 336C709 363 682 409 654.8 421C627.7 433 600.3 411 573 411C545.7 411 518.3 433 491 416C463.7 399 436.3 343 409 332C381.7 321 354.3 355 327 390C299.7 425 272.3 461 245.2 467C218 473 191 449 163.8 449C136.7 449 109.3 473 82 470C54.7 467 27.3 437 13.7 422L0 407Z" fill="#9198e5"></path></svg>