<?xml version="1.0" standalone="no"?>
<!DOCTYPE svg PUBLIC "-//W3C//DTD SVG 20010904//EN"
 "http://www.w3.org/TR/2001/REC-SVG-20010904/DTD/svg10.dtd">
<svg version="1.0" xmlns="http://www.w3.org/2000/svg"
 width="375.000000pt" height="375.000000pt" viewBox="0 0 375.000000 375.000000"
 preserveAspectRatio="xMidYMid meet">

<g transform="translate(0.000000,375.000000) scale(0.100000,-0.100000)"
fill="#5a5959" stroke="#5a5959">
<path d="M2363 2554 c-241 -53 -370 -239 -289 -416 30 -65 47 -85 166 -188
141 -123 277 -258 325 -323 36 -47 43 -63 40 -93 -2 -20 -9 -41 -17 -45 -7 -5
-134 -8 -283 -6 l-270 2 -2 426 c-1 407 -2 428 -22 466 -23 46 -73 93 -134
125 l-42 23 -662 3 -663 3 0 -46 0 -45 590 0 c387 0 606 -4 640 -11 28 -6 64
-22 81 -36 60 -51 59 -45 59 -478 0 -454 -1 -445 79 -488 l48 -26 314 -1 c364
-1 400 5 435 72 33 63 -9 170 -98 253 -29 28 -108 99 -176 158 -293 259 -356
419 -203 520 90 59 57 57 753 57 l639 0 -3 53 -3 52 -620 2 c-491 1 -633 -2
-682 -13z"/>
<path d="M84 2373 c3 -82 5 -370 5 -640 l1 -493 59 0 58 0 8 323 c4 177 5 465
3 639 l-3 318 -68 0 -68 0 5 -147z"/>
<path d="M290 1880 l0 -640 70 0 70 0 0 640 0 640 -70 0 -70 0 0 -640z"/>
<path d="M2399 2375 c-90 -47 -121 -115 -81 -177 9 -14 129 -144 265 -288 272
-286 293 -316 285 -402 -6 -60 -38 -97 -121 -139 l-58 -30 -337 2 c-298 1
-343 3 -385 19 -69 26 -116 66 -139 117 -19 42 -20 65 -17 441 2 288 0 403 -9
418 -6 12 -26 27 -43 33 -21 7 -226 11 -636 11 -333 0 -607 -1 -608 -2 -5 -5
-7 -31 -6 -60 l1 -28 538 0 c573 0 566 0 604 -51 18 -23 19 -50 21 -405 2
-361 3 -381 23 -424 23 -51 78 -103 129 -124 66 -28 188 -36 528 -36 299 0
351 3 412 19 176 45 241 112 237 241 -3 117 -11 131 -207 347 -98 109 -214
234 -256 278 -74 77 -98 117 -82 141 23 32 52 34 638 34 l586 0 -2 45 -3 45
-615 0 -616 -1 -46 -24z"/>
<path d="M3045 2221 c-3 -5 -4 -228 -3 -495 l3 -486 63 0 62 0 0 495 0 495
-59 0 c-33 0 -62 -4 -66 -9z"/>
<path d="M3245 2219 c-4 -6 -6 -229 -4 -495 l4 -484 63 0 62 0 2 458 c0 251 2
473 2 492 l1 35 -62 3 c-38 2 -64 -1 -68 -9z"/>
<path d="M1008 1922 c-284 -305 -289 -313 -291 -417 -1 -118 75 -205 222 -255
56 -18 84 -20 381 -20 l320 0 0 39 0 39 -292 5 c-306 5 -347 10 -433 55 -87
44 -98 136 -30 240 21 31 84 104 140 162 56 58 146 153 199 213 93 103 96 107
68 107 -16 0 -49 3 -73 6 l-44 6 -167 -180z"/>
<path d="M1214 1848 c-138 -139 -259 -264 -268 -278 -34 -51 -19 -103 38 -132
83 -42 128 -48 399 -48 l258 0 -3 48 -3 47 -235 -3 c-239 -2 -292 4 -317 36
-7 9 -13 23 -13 31 0 8 120 136 267 283 l268 268 -70 0 -70 0 -251 -252z"/>
<path d="M517 2044 c-4 -4 -7 -29 -7 -56 l0 -48 156 0 155 0 -3 53 -3 52 -146
3 c-80 1 -148 -1 -152 -4z"/>
<path d="M517 1863 c-10 -9 -9 -93 1 -94 4 0 72 -1 152 -2 l145 -2 3 53 3 52
-149 0 c-82 0 -152 -3 -155 -7z"/>
</g>
</svg>
