<svg id="visual" viewBox="0 0 900 600" width="900" height="600" xmlns="http://www.w3.org/2000/svg" xmlns:xlink="http://www.w3.org/1999/xlink" version="1.1"><path d="M0 133L13.7 133C27.3 133 54.7 133 82 131C109.3 129 136.7 125 163.8 122C191 119 218 117 245.2 108C272.3 99 299.7 83 327 73C354.3 63 381.7 59 409 55C436.3 51 463.7 47 491 57C518.3 67 545.7 91 573 91C600.3 91 627.7 67 654.8 60C682 53 709 63 736.2 72C763.3 81 790.7 89 818 85C845.3 81 872.7 65 886.3 57L900 49L900 0L886.3 0C872.7 0 845.3 0 818 0C790.7 0 763.3 0 736.2 0C709 0 682 0 654.8 0C627.7 0 600.3 0 573 0C545.7 0 518.3 0 491 0C463.7 0 436.3 0 409 0C381.7 0 354.3 0 327 0C299.7 0 272.3 0 245.2 0C218 0 191 0 163.8 0C136.7 0 109.3 0 82 0C54.7 0 27.3 0 13.7 0L0 0Z" fill="#b1b8ee"></path><path d="M0 307L13.7 304C27.3 301 54.7 295 82 296C109.3 297 136.7 305 163.8 291C191 277 218 241 245.2 236C272.3 231 299.7 257 327 266C354.3 275 381.7 267 409 282C436.3 297 463.7 335 491 331C518.3 327 545.7 281 573 261C600.3 241 627.7 247 654.8 250C682 253 709 253 736.2 246C763.3 239 790.7 225 818 225C845.3 225 872.7 239 886.3 246L900 253L900 47L886.3 55C872.7 63 845.3 79 818 83C790.7 87 763.3 79 736.2 70C709 61 682 51 654.8 58C627.7 65 600.3 89 573 89C545.7 89 518.3 65 491 55C463.7 45 436.3 49 409 53C381.7 57 354.3 61 327 71C299.7 81 272.3 97 245.2 106C218 115 191 117 163.8 120C136.7 123 109.3 127 82 129C54.7 131 27.3 131 13.7 131L0 131Z" fill="#a1a8ea"></path><path d="M0 481L13.7 480C27.3 479 54.7 477 82 468C109.3 459 136.7 443 163.8 428C191 413 218 399 245.2 404C272.3 409 299.7 433 327 448C354.3 463 381.7 469 409 475C436.3 481 463.7 487 491 480C518.3 473 545.7 453 573 434C600.3 415 627.7 397 654.8 405C682 413 709 447 736.2 446C763.3 445 790.7 409 818 391C845.3 373 872.7 373 886.3 373L900 373L900 251L886.3 244C872.7 237 845.3 223 818 223C790.7 223 763.3 237 736.2 244C709 251 682 251 654.8 248C627.7 245 600.3 239 573 259C545.7 279 518.3 325 491 329C463.7 333 436.3 295 409 280C381.7 265 354.3 273 327 264C299.7 255 272.3 229 245.2 234C218 239 191 275 163.8 289C136.7 303 109.3 295 82 294C54.7 293 27.3 299 13.7 302L0 305Z" fill="#9198e5"></path><path d="M0 565L13.7 563C27.3 561 54.7 557 82 551C109.3 545 136.7 537 163.8 533C191 529 218 529 245.2 533C272.3 537 299.7 545 327 550C354.3 555 381.7 557 409 558C436.3 559 463.7 559 491 558C518.3 557 545.7 555 573 549C600.3 543 627.7 533 654.8 532C682 531 709 539 736.2 536C763.3 533 790.7 519 818 514C845.3 509 872.7 513 886.3 515L900 517L900 371L886.3 371C872.7 371 845.3 371 818 389C790.7 407 763.3 443 736.2 444C709 445 682 411 654.8 403C627.7 395 600.3 413 573 432C545.7 451 518.3 471 491 478C463.7 485 436.3 479 409 473C381.7 467 354.3 461 327 446C299.7 431 272.3 407 245.2 402C218 397 191 411 163.8 426C136.7 441 109.3 457 82 466C54.7 475 27.3 477 13.7 478L0 479Z" fill="#7f85d9"></path><path d="M0 601L13.7 601C27.3 601 54.7 601 82 601C109.3 601 136.7 601 163.8 601C191 601 218 601 245.2 601C272.3 601 299.7 601 327 601C354.3 601 381.7 601 409 601C436.3 601 463.7 601 491 601C518.3 601 545.7 601 573 601C600.3 601 627.7 601 654.8 601C682 601 709 601 736.2 601C763.3 601 790.7 601 818 601C845.3 601 872.7 601 886.3 601L900 601L900 515L886.3 513C872.7 511 845.3 507 818 512C790.7 517 763.3 531 736.2 534C709 537 682 529 654.8 530C627.7 531 600.3 541 573 547C545.7 553 518.3 555 491 556C463.7 557 436.3 557 409 556C381.7 555 354.3 553 327 548C299.7 543 272.3 535 245.2 531C218 527 191 527 163.8 531C136.7 535 109.3 543 82 549C54.7 555 27.3 559 13.7 561L0 563Z" fill="#6e73cc"></path></svg>