<svg id="visual" viewBox="0 0 900 1024" width="900" height="1024" xmlns="http://www.w3.org/2000/svg" xmlns:xlink="http://www.w3.org/1999/xlink" version="1.1"><rect x="0" y="0" width="900" height="1024" fill="#9198e5"></rect><path d="M0 695L21.5 726.2C43 757.3 86 819.7 128.8 820.8C171.7 822 214.3 762 257.2 732.2C300 702.3 343 702.7 385.8 727.8C428.7 753 471.3 803 514.2 817.8C557 832.7 600 812.3 642.8 795.8C685.7 779.3 728.3 766.7 771.2 776.8C814 787 857 820 878.5 836.5L900 853L900 1025L878.5 1025C857 1025 814 1025 771.2 1025C728.3 1025 685.7 1025 642.8 1025C600 1025 557 1025 514.2 1025C471.3 1025 428.7 1025 385.8 1025C343 1025 300 1025 257.2 1025C214.3 1025 171.7 1025 128.8 1025C86 1025 43 1025 21.5 1025L0 1025Z" fill="#e66465" stroke-linecap="round" stroke-linejoin="miter"></path></svg>