<svg id="visual" viewBox="0 0 900 768" width="900" height="768" xmlns="http://www.w3.org/2000/svg" xmlns:xlink="http://www.w3.org/1999/xlink" version="1.1"><rect x="0" y="0" width="900" height="768" fill="#9198e5"></rect><path d="M0 521L21.5 544.3C43 567.7 86 614.3 128.8 615.2C171.7 616 214.3 571 257.2 548.7C300 526.3 343 526.7 385.8 545.5C428.7 564.3 471.3 601.7 514.2 612.8C557 624 600 609 642.8 596.7C685.7 584.3 728.3 574.7 771.2 582.3C814 590 857 615 878.5 627.5L900 640L900 769L878.5 769C857 769 814 769 771.2 769C728.3 769 685.7 769 642.8 769C600 769 557 769 514.2 769C471.3 769 428.7 769 385.8 769C343 769 300 769 257.2 769C214.3 769 171.7 769 128.8 769C86 769 43 769 21.5 769L0 769Z" fill="#e66465" stroke-linecap="round" stroke-linejoin="miter"></path></svg>