<svg id="visual" viewBox="0 0 900 50" width="900" height="50" xmlns="http://www.w3.org/2000/svg" xmlns:xlink="http://www.w3.org/1999/xlink" version="1.1"><path d="M0 7L13.7 6.7C27.3 6.3 54.7 5.7 82 5.8C109.3 6 136.7 7 163.8 7.3C191 7.7 218 7.3 245.2 7.5C272.3 7.7 299.7 8.3 327 8C354.3 7.7 381.7 6.3 409 6.2C436.3 6 463.7 7 491 7C518.3 7 545.7 6 573 5.8C600.3 5.7 627.7 6.3 654.8 7C682 7.7 709 8.3 736.2 8.7C763.3 9 790.7 9 818 8.7C845.3 8.3 872.7 7.7 886.3 7.3L900 7L900 0L886.3 0C872.7 0 845.3 0 818 0C790.7 0 763.3 0 736.2 0C709 0 682 0 654.8 0C627.7 0 600.3 0 573 0C545.7 0 518.3 0 491 0C463.7 0 436.3 0 409 0C381.7 0 354.3 0 327 0C299.7 0 272.3 0 245.2 0C218 0 191 0 163.8 0C136.7 0 109.3 0 82 0C54.7 0 27.3 0 13.7 0L0 0Z" fill="#b1b8ee"></path><path d="M0 15L13.7 14.3C27.3 13.7 54.7 12.3 82 12.3C109.3 12.3 136.7 13.7 163.8 14.2C191 14.7 218 14.3 245.2 14.7C272.3 15 299.7 16 327 15C354.3 14 381.7 11 409 11C436.3 11 463.7 14 491 14.7C518.3 15.3 545.7 13.7 573 13C600.3 12.3 627.7 12.7 654.8 13.5C682 14.3 709 15.7 736.2 15.7C763.3 15.7 790.7 14.3 818 14C845.3 13.7 872.7 14.3 886.3 14.7L900 15L900 5L886.3 5.3C872.7 5.7 845.3 6.3 818 6.7C790.7 7 763.3 7 736.2 6.7C709 6.3 682 5.7 654.8 5C627.7 4.3 600.3 3.7 573 3.8C545.7 4 518.3 5 491 5C463.7 5 436.3 4 409 4.2C381.7 4.3 354.3 5.7 327 6C299.7 6.3 272.3 5.7 245.2 5.5C218 5.3 191 5.7 163.8 5.3C136.7 5 109.3 4 82 3.8C54.7 3.7 27.3 4.3 13.7 4.7L0 5Z" fill="#888fdf"></path><path d="M0 32L13.7 30C27.3 28 54.7 24 82 23C109.3 22 136.7 24 163.8 26.5C191 29 218 32 245.2 34C272.3 36 299.7 37 327 35C354.3 33 381.7 28 409 26.5C436.3 25 463.7 27 491 29.2C518.3 31.3 545.7 33.7 573 32.8C600.3 32 627.7 28 654.8 27.2C682 26.3 709 28.7 736.2 30.7C763.3 32.7 790.7 34.3 818 35.2C845.3 36 872.7 36 886.3 36L900 36L900 13L886.3 12.7C872.7 12.3 845.3 11.7 818 12C790.7 12.3 763.3 13.7 736.2 13.7C709 13.7 682 12.3 654.8 11.5C627.7 10.7 600.3 10.3 573 11C545.7 11.7 518.3 13.3 491 12.7C463.7 12 436.3 9 409 9C381.7 9 354.3 12 327 13C299.7 14 272.3 13 245.2 12.7C218 12.3 191 12.7 163.8 12.2C136.7 11.7 109.3 10.3 82 10.3C54.7 10.3 27.3 11.7 13.7 12.3L0 13Z" fill="#6e73cc"></path><path d="M0 41L13.7 39.7C27.3 38.3 54.7 35.7 82 35C109.3 34.3 136.7 35.7 163.8 37.5C191 39.3 218 41.7 245.2 42.7C272.3 43.7 299.7 43.3 327 41.8C354.3 40.3 381.7 37.7 409 37.2C436.3 36.7 463.7 38.3 491 39.5C518.3 40.7 545.7 41.3 573 40.8C600.3 40.3 627.7 38.7 654.8 38.2C682 37.7 709 38.3 736.2 39.2C763.3 40 790.7 41 818 41.3C845.3 41.7 872.7 41.3 886.3 41.2L900 41L900 34L886.3 34C872.7 34 845.3 34 818 33.2C790.7 32.3 763.3 30.7 736.2 28.7C709 26.7 682 24.3 654.8 25.2C627.7 26 600.3 30 573 30.8C545.7 31.7 518.3 29.3 491 27.2C463.7 25 436.3 23 409 24.5C381.7 26 354.3 31 327 33C299.7 35 272.3 34 245.2 32C218 30 191 27 163.8 24.5C136.7 22 109.3 20 82 21C54.7 22 27.3 26 13.7 28L0 30Z" fill="#888fdf"></path><path d="M0 51L13.7 51C27.3 51 54.7 51 82 51C109.3 51 136.7 51 163.8 51C191 51 218 51 245.2 51C272.3 51 299.7 51 327 51C354.3 51 381.7 51 409 51C436.3 51 463.7 51 491 51C518.3 51 545.7 51 573 51C600.3 51 627.7 51 654.8 51C682 51 709 51 736.2 51C763.3 51 790.7 51 818 51C845.3 51 872.7 51 886.3 51L900 51L900 39L886.3 39.2C872.7 39.3 845.3 39.7 818 39.3C790.7 39 763.3 38 736.2 37.2C709 36.3 682 35.7 654.8 36.2C627.7 36.7 600.3 38.3 573 38.8C545.7 39.3 518.3 38.7 491 37.5C463.7 36.3 436.3 34.7 409 35.2C381.7 35.7 354.3 38.3 327 39.8C299.7 41.3 272.3 41.7 245.2 40.7C218 39.7 191 37.3 163.8 35.5C136.7 33.7 109.3 32.3 82 33C54.7 33.7 27.3 36.3 13.7 37.7L0 39Z" fill="#b1b8ee"></path></svg>