<svg id="visual" viewBox="0 0 768 50" width="768" height="50" xmlns="http://www.w3.org/2000/svg" xmlns:xlink="http://www.w3.org/1999/xlink" version="1.1"><path d="M0 21L70 11L140 16L209 13L279 14L349 12L419 8L489 17L559 17L628 19L698 11L768 8L768 0L698 0L628 0L559 0L489 0L419 0L349 0L279 0L209 0L140 0L70 0L0 0Z" fill="#e66465"></path><path d="M0 28L70 24L140 28L209 18L279 22L349 21L419 19L489 22L559 25L628 26L698 24L768 20L768 6L698 9L628 17L559 15L489 15L419 6L349 10L279 12L209 11L140 14L70 9L0 19Z" fill="#e6688f"></path><path d="M0 36L70 28L140 36L209 26L279 27L349 29L419 26L489 29L559 29L628 33L698 31L768 27L768 18L698 22L628 24L559 23L489 20L419 17L349 19L279 20L209 16L140 26L70 22L0 26Z" fill="#d675b6"></path><path d="M0 45L70 42L140 44L209 43L279 45L349 42L419 43L489 47L559 46L628 46L698 44L768 43L768 25L698 29L628 31L559 27L489 27L419 24L349 27L279 25L209 24L140 34L70 26L0 34Z" fill="#b887d4"></path><path d="M0 51L70 51L140 51L209 51L279 51L349 51L419 51L489 51L559 51L628 51L698 51L768 51L768 41L698 42L628 44L559 44L489 45L419 41L349 40L279 43L209 41L140 42L70 40L0 43Z" fill="#9198e5"></path></svg>