<svg id="visual" viewBox="0 0 1024 80" width="1024" height="80" xmlns="http://www.w3.org/2000/svg" xmlns:xlink="http://www.w3.org/1999/xlink" version="1.1"><path d="M0 29L93 24L186 15L279 23L372 23L465 38L559 16L652 23L745 31L838 29L931 33L1024 28L1024 0L931 0L838 0L745 0L652 0L559 0L465 0L372 0L279 0L186 0L93 0L0 0Z" fill="#e66465"></path><path d="M0 42L93 32L186 22L279 31L372 36L465 50L559 23L652 36L745 42L838 35L931 42L1024 41L1024 26L931 31L838 27L745 29L652 21L559 14L465 36L372 21L279 21L186 13L93 22L0 27Z" fill="#e6688f"></path><path d="M0 64L93 55L186 60L279 47L372 64L465 62L559 47L652 50L745 57L838 59L931 56L1024 50L1024 39L931 40L838 33L745 40L652 34L559 21L465 48L372 34L279 29L186 20L93 30L0 40Z" fill="#d675b6"></path><path d="M0 71L93 72L186 72L279 67L372 71L465 70L559 66L652 68L745 70L838 67L931 71L1024 66L1024 48L931 54L838 57L745 55L652 48L559 45L465 60L372 62L279 45L186 58L93 53L0 62Z" fill="#b887d4"></path><path d="M0 81L93 81L186 81L279 81L372 81L465 81L559 81L652 81L745 81L838 81L931 81L1024 81L1024 64L931 69L838 65L745 68L652 66L559 64L465 68L372 69L279 65L186 70L93 70L0 69Z" fill="#9198e5"></path></svg>